<svg width="45" height="53" viewBox="0 0 45 53" fill="none" xmlns="http://www.w3.org/2000/svg">
<path d="M22.5 20C23.2083 20 23.8021 19.7604 24.2812 19.2812C24.7604 18.8021 25 18.2083 25 17.5C25 16.7917 24.7604 16.1979 24.2812 15.7188C23.8021 15.2396 23.2083 15 22.5 15C21.7917 15 21.1979 15.2396 20.7188 15.7188C20.2396 16.1979 20 16.7917 20 17.5C20 18.2083 20.2396 18.8021 20.7188 19.2812C21.1979 19.7604 21.7917 20 22.5 20ZM22.5 35C20.875 35 19.4062 34.5521 18.0938 33.6562C16.7812 32.7604 15.8333 31.5833 15.25 30.125C15.0417 30.125 14.8542 30.1354 14.6875 30.1562C14.5208 30.1771 14.3333 30.1875 14.125 30.1875C11.9583 30.1875 10.1042 29.4167 8.5625 27.875C7.02083 26.3333 6.25 24.4792 6.25 22.3125C6.25 21.4375 6.39583 20.5938 6.6875 19.7812C6.97917 18.9688 7.41667 18.2083 8 17.5C7.45833 16.7917 7.04167 16.0312 6.75 15.2188C6.45833 14.4062 6.3125 13.5625 6.3125 12.6875C6.3125 10.5208 7.07292 8.66667 8.59375 7.125C10.1146 5.58333 11.9583 4.8125 14.125 4.8125C14.3333 4.8125 14.5208 4.82292 14.6875 4.84375C14.8542 4.86458 15.0417 4.875 15.25 4.875C15.8333 3.41667 16.7812 2.23958 18.0938 1.34375C19.4062 0.447917 20.875 0 22.5 0C24.125 0 25.5938 0.447917 26.9062 1.34375C28.2188 2.23958 29.1667 3.41667 29.75 4.875C29.9583 4.875 30.1458 4.86458 30.3125 4.84375C30.4792 4.82292 30.6667 4.8125 30.875 4.8125C33.0417 4.8125 34.8854 5.58333 36.4062 7.125C37.9271 8.66667 38.6875 10.5208 38.6875 12.6875C38.6875 13.5625 38.5521 14.4062 38.2812 15.2188C38.0104 16.0312 37.5833 16.7917 37 17.5C37.5417 18.2083 37.9583 18.9688 38.25 19.7812C38.5417 20.5938 38.6875 21.4375 38.6875 22.3125C38.6875 24.4792 37.9271 26.3333 36.4062 27.875C34.8854 29.4167 33.0417 30.1875 30.875 30.1875C30.6667 30.1875 30.4792 30.1771 30.3125 30.1562C30.1458 30.1354 29.9583 30.125 29.75 30.125C29.1667 31.5833 28.2188 32.7604 26.9062 33.6562C25.5938 34.5521 24.125 35 22.5 35ZM22.5 52.5C22.5 49.4167 23.0938 46.5104 24.2812 43.7812C25.4688 41.0521 27.0833 38.6667 29.125 36.625C31.1667 34.5833 33.5521 32.9688 36.2812 31.7812C39.0104 30.5938 41.9167 30 45 30C45 33.0833 44.4062 35.9896 43.2188 38.7188C42.0312 41.4479 40.4167 43.8333 38.375 45.875C36.3333 47.9167 33.9479 49.5312 31.2188 50.7188C28.4896 51.9062 25.5833 52.5 22.5 52.5ZM28.625 46.375C31 45.5 33.0833 44.1667 34.875 42.375C36.6667 40.5833 38 38.5 38.875 36.125C36.5 37 34.4167 38.3333 32.625 40.125C30.8333 41.9167 29.5 44 28.625 46.375ZM22.5 52.5C22.5 49.4167 21.9062 46.5104 20.7188 43.7812C19.5312 41.0521 17.9167 38.6667 15.875 36.625C13.8333 34.5833 11.4479 32.9688 8.71875 31.7812C5.98958 30.5938 3.08333 30 0 30C0 33.0833 0.59375 35.9896 1.78125 38.7188C2.96875 41.4479 4.58333 43.8333 6.625 45.875C8.66667 47.9167 11.0521 49.5312 13.7812 50.7188C16.5104 51.9062 19.4167 52.5 22.5 52.5ZM16.375 46.375C14 45.5 11.9167 44.1667 10.125 42.375C8.33333 40.5833 7 38.5 6.125 36.125C8.5 37 10.5833 38.3333 12.375 40.125C14.1667 41.9167 15.5 44 16.375 46.375ZM30.875 25.1875C31.6667 25.1875 32.3438 24.9062 32.9062 24.3438C33.4688 23.7812 33.75 23.1042 33.75 22.3125C33.75 21.7292 33.5938 21.2188 33.2812 20.7812C32.9688 20.3438 32.5625 20 32.0625 19.75L29.875 18.6875C29.7917 19.1458 29.6667 19.5938 29.5 20.0312C29.3333 20.4688 29.1458 20.875 28.9375 21.25C28.7292 21.625 28.4792 21.9792 28.1875 22.3125C27.8958 22.6458 27.5833 22.9583 27.25 23.25L29.25 24.6875C29.4583 24.8542 29.6979 24.9792 29.9688 25.0625C30.2396 25.1458 30.5417 25.1875 30.875 25.1875ZM29.875 16.3125L32.0625 15.25C32.5625 15 32.9583 14.6458 33.25 14.1875C33.5417 13.7292 33.6875 13.2292 33.6875 12.6875C33.6875 11.8958 33.4167 11.2188 32.875 10.6562C32.3333 10.0938 31.6667 9.8125 30.875 9.8125C30.5417 9.8125 30.25 9.85417 30 9.9375C29.75 10.0208 29.5 10.1458 29.25 10.3125L27.1875 11.75C27.5208 12.0417 27.8438 12.3542 28.1562 12.6875C28.4688 13.0208 28.7292 13.375 28.9375 13.75C29.1458 14.125 29.3333 14.5312 29.5 14.9688C29.6667 15.4062 29.7917 15.8542 29.875 16.3125ZM19.9375 10.5C20.3542 10.3333 20.7708 10.2083 21.1875 10.125C21.6042 10.0417 22.0417 10 22.5 10C22.9583 10 23.3958 10.0417 23.8125 10.125C24.2292 10.2083 24.6458 10.3333 25.0625 10.5L25.375 7.75C25.4583 7 25.1979 6.35417 24.5938 5.8125C23.9896 5.27083 23.2917 5 22.5 5C21.7083 5 21.0104 5.27083 20.4062 5.8125C19.8021 6.35417 19.5417 7 19.625 7.75L19.9375 10.5ZM22.5 30C23.2917 30 23.9896 29.7292 24.5938 29.1875C25.1979 28.6458 25.4583 28 25.375 27.25L25.0625 24.5C24.6458 24.6667 24.2292 24.7917 23.8125 24.875C23.3958 24.9583 22.9583 25 22.5 25C22.0417 25 21.6042 24.9583 21.1875 24.875C20.7708 24.7917 20.3542 24.6667 19.9375 24.5L19.625 27.25C19.5417 28 19.8021 28.6458 20.4062 29.1875C21.0104 29.7292 21.7083 30 22.5 30ZM15.125 16.3125C15.2083 15.8542 15.3333 15.4062 15.5 14.9688C15.6667 14.5312 15.8542 14.125 16.0625 13.75C16.2708 13.375 16.5208 13.0208 16.8125 12.6875C17.1042 12.3542 17.4167 12.0417 17.75 11.75L15.75 10.3125C15.5417 10.1458 15.3021 10.0208 15.0312 9.9375C14.7604 9.85417 14.4583 9.8125 14.125 9.8125C13.3333 9.8125 12.6562 10.0938 12.0938 10.6562C11.5312 11.2188 11.25 11.8958 11.25 12.6875C11.25 13.2292 11.4062 13.7292 11.7188 14.1875C12.0312 14.6458 12.4375 15 12.9375 15.25L15.125 16.3125ZM14.125 25.125C14.4583 25.125 14.75 25.0938 15 25.0312C15.25 24.9688 15.5 24.8333 15.75 24.625L17.8125 23.25C17.4792 22.9583 17.1562 22.6458 16.8438 22.3125C16.5312 21.9792 16.2708 21.625 16.0625 21.25C15.8542 20.875 15.6667 20.4688 15.5 20.0312C15.3333 19.5938 15.2083 19.1458 15.125 18.6875L12.9375 19.75C12.4375 20 12.0417 20.3542 11.75 20.8125C11.4583 21.2708 11.3125 21.7708 11.3125 22.3125C11.3542 23.1042 11.6354 23.7708 12.1562 24.3125C12.6771 24.8542 13.3333 25.125 14.125 25.125Z" fill="white"/>
</svg>
