<svg xmlns="http://www.w3.org/2000/svg" width="123" height="142" viewBox="0 0 123 142" fill="none">
<g opacity="0.1">
<path d="M61.614 133.333C55.2807 133.333 49.6696 131.333 44.7807 127.333C39.8918 123.333 36.8363 118.222 35.614 112C29.7251 113.889 23.7807 113.778 17.7807 111.667C11.7807 109.556 7.16959 105.889 3.94737 100.667C0.614035 95.3333 -0.608187 89.4167 0.280702 82.9167C1.16959 76.4167 4.05848 71 8.94737 66.6667C4.2807 62.4444 1.47515 57.2222 0.530702 51C-0.413743 44.7778 0.614035 39 3.61404 33.6667C6.61404 28.3333 11.1418 24.4722 17.1974 22.0833C23.2529 19.6944 29.2807 19.4444 35.2807 21.3333C36.5029 15.1111 39.5585 10 44.4474 6C49.3363 2 54.9474 0 61.2807 0C67.614 0 73.2252 2 78.114 6C83.0029 10 86.0585 15.1111 87.2807 21.3333C93.5029 19.4444 99.5307 19.6111 105.364 21.8333C111.197 24.0556 115.725 28 118.947 33.6667C121.947 39.2222 123.031 45.0278 122.197 51.0833C121.364 57.1389 118.503 62.3333 113.614 66.6667C118.503 71 121.42 76.3611 122.364 82.75C123.308 89.1389 122.281 95.1111 119.281 100.667C116.058 106.333 111.531 110.111 105.697 112C99.864 113.889 93.8363 113.889 87.614 112C86.3918 118.222 83.3363 123.333 78.4474 127.333C73.5585 131.333 67.9474 133.333 61.614 133.333ZM61.614 120C66.8363 120 70.7529 117.75 73.364 113.25C75.9752 108.75 75.9474 104.333 73.2807 100L68.614 92.3333C67.3918 92.6667 66.2252 92.9167 65.114 93.0833C64.0029 93.25 62.8363 93.3333 61.614 93.3333C60.5029 93.3333 59.364 93.25 58.1974 93.0833C57.0307 92.9167 55.8363 92.6667 54.614 92.3333L49.9474 100C47.2807 104.333 47.2529 108.75 49.864 113.25C52.4751 117.75 56.3918 120 61.614 120ZM14.9474 93.3333C17.614 97.8889 21.5307 100.167 26.6974 100.167C31.864 100.167 35.7251 97.8889 38.2807 93.3333L42.614 85.6667C41.7251 84.7778 40.8918 83.8333 40.114 82.8333C39.3363 81.8333 38.6696 80.7778 38.114 79.6667C37.5585 78.6667 37.0585 77.6389 36.614 76.5833C36.1696 75.5278 35.7807 74.4445 35.4474 73.3333H26.614C21.3918 73.3333 17.5029 75.5278 14.9474 79.9167C12.3918 84.3055 12.3918 88.7778 14.9474 93.3333ZM84.2807 93.3333C86.8363 97.8889 90.6974 100.167 95.864 100.167C101.031 100.167 104.947 97.8889 107.614 93.3333C110.17 88.7778 110.17 84.3055 107.614 79.9167C105.058 75.5278 101.17 73.3333 95.9474 73.3333H87.114C86.8918 74.4445 86.5307 75.5278 86.0307 76.5833C85.5307 77.6389 85.0029 78.6667 84.4474 79.6667C83.8918 80.7778 83.2251 81.8333 82.4474 82.8333C81.6696 83.8333 80.8363 84.7778 79.9474 85.6667L84.2807 93.3333ZM35.4474 60C35.7807 58.7778 36.1974 57.5833 36.6974 56.4167C37.1974 55.25 37.7251 54.1667 38.2807 53.1667C38.8363 52.1667 39.4751 51.2222 40.1974 50.3333C40.9196 49.4444 41.7251 48.5556 42.614 47.6667L38.2807 40C35.7251 35.4444 31.864 33.1667 26.6974 33.1667C21.5307 33.1667 17.614 35.4444 14.9474 40C12.3918 44.5556 12.3918 49.0278 14.9474 53.4167C17.5029 57.8056 21.3918 60 26.614 60H35.4474ZM95.9474 60C101.17 60 105.058 57.8056 107.614 53.4167C110.17 49.0278 110.17 44.5556 107.614 40C104.947 35.4444 101.031 33.1667 95.864 33.1667C90.6974 33.1667 86.8363 35.4444 84.2807 40L79.9474 47.6667C80.8363 48.5556 81.6418 49.4444 82.364 50.3333C83.0863 51.2222 83.7251 52.1667 84.2807 53.1667C84.8363 54.1667 85.364 55.25 85.864 56.4167C86.364 57.5833 86.7807 58.7778 87.114 60H95.9474ZM54.114 41C55.3363 40.6667 56.5307 40.4167 57.6974 40.25C58.864 40.0833 60.0585 40 61.2807 40C62.5029 40 63.6974 40.0833 64.864 40.25C66.0307 40.4167 67.2251 40.6667 68.4474 41L72.9474 33.3333C75.5029 29 75.5029 24.5833 72.9474 20.0833C70.3918 15.5833 66.5029 13.3333 61.2807 13.3333C56.0585 13.3333 52.1696 15.5556 49.614 20C47.0585 24.4444 47.0585 28.8889 49.614 33.3333L54.114 41ZM54.114 41C55.3363 40.6667 56.5307 40.4167 57.6974 40.25C58.864 40.0833 60.0585 40 61.2807 40C62.5029 40 63.6974 40.0833 64.864 40.25C66.0307 40.4167 67.2251 40.6667 68.4474 41C67.2251 40.6667 66.0307 40.4167 64.864 40.25C63.6974 40.0833 62.5029 40 61.2807 40C60.0585 40 58.864 40.0833 57.6974 40.25C56.5307 40.4167 55.3363 40.6667 54.114 41ZM38.114 79.6667C37.5585 78.6667 37.0585 77.6389 36.614 76.5833C36.1696 75.5278 35.7807 74.4445 35.4474 73.3333C35.7807 74.4445 36.1696 75.5278 36.614 76.5833C37.0585 77.6389 37.5585 78.6667 38.114 79.6667C38.6696 80.7778 39.3363 81.8333 40.114 82.8333C40.8918 83.8333 41.7251 84.7778 42.614 85.6667C41.7251 84.7778 40.8918 83.8333 40.114 82.8333C39.3363 81.8333 38.6696 80.7778 38.114 79.6667ZM35.4474 60C35.7807 58.7778 36.1974 57.5833 36.6974 56.4167C37.1974 55.25 37.7251 54.1667 38.2807 53.1667C38.8363 52.1667 39.4751 51.2222 40.1974 50.3333C40.9196 49.4444 41.7251 48.5556 42.614 47.6667C41.7251 48.5556 40.9196 49.4444 40.1974 50.3333C39.4751 51.2222 38.8363 52.1667 38.2807 53.1667C37.7251 54.1667 37.1974 55.25 36.6974 56.4167C36.1974 57.5833 35.7807 58.7778 35.4474 60ZM61.614 93.3333C60.5029 93.3333 59.364 93.25 58.1974 93.0833C57.0307 92.9167 55.8363 92.6667 54.614 92.3333C55.8363 92.6667 57.0307 92.9167 58.1974 93.0833C59.364 93.25 60.5029 93.3333 61.614 93.3333C62.8363 93.3333 64.0029 93.25 65.114 93.0833C66.2252 92.9167 67.3918 92.6667 68.614 92.3333C67.3918 92.6667 66.2252 92.9167 65.114 93.0833C64.0029 93.25 62.8363 93.3333 61.614 93.3333ZM79.9474 85.6667C80.8363 84.7778 81.6696 83.8333 82.4474 82.8333C83.2251 81.8333 83.8918 80.7778 84.4474 79.6667C85.0029 78.6667 85.5307 77.6389 86.0307 76.5833C86.5307 75.5278 86.8918 74.4445 87.114 73.3333C86.8918 74.4445 86.5307 75.5278 86.0307 76.5833C85.5307 77.6389 85.0029 78.6667 84.4474 79.6667C83.8918 80.7778 83.2251 81.8333 82.4474 82.8333C81.6696 83.8333 80.8363 84.7778 79.9474 85.6667ZM87.114 60C86.7807 58.7778 86.364 57.5833 85.864 56.4167C85.364 55.25 84.8363 54.1667 84.2807 53.1667C83.7251 52.1667 83.0863 51.2222 82.364 50.3333C81.6418 49.4444 80.8363 48.5556 79.9474 47.6667C80.8363 48.5556 81.6418 49.4444 82.364 50.3333C83.0863 51.2222 83.7251 52.1667 84.2807 53.1667C84.8363 54.1667 85.364 55.25 85.864 56.4167C86.364 57.5833 86.7807 58.7778 87.114 60ZM61.2807 80C64.9474 80 68.0863 78.6945 70.6974 76.0833C73.3085 73.4722 74.614 70.3333 74.614 66.6667C74.614 63 73.3085 59.8611 70.6974 57.25C68.0863 54.6389 64.9474 53.3333 61.2807 53.3333C57.614 53.3333 54.4751 54.6389 51.864 57.25C49.2529 59.8611 47.9474 63 47.9474 66.6667C47.9474 70.3333 49.2529 73.4722 51.864 76.0833C54.4751 78.6945 57.614 80 61.2807 80Z" fill="#665F3D"/>
</g>
</svg>