<svg width="101" height="101" viewBox="0 0 101 101" fill="none" xmlns="http://www.w3.org/2000/svg">
<rect width="100.8" height="100.8" rx="48" fill="#1F6C3A"/>
<path d="M50.4 45.15C50.995 45.15 51.4937 44.9487 51.8962 44.5462C52.2987 44.1437 52.5 43.645 52.5 43.05C52.5 42.455 52.2987 41.9562 51.8962 41.5537C51.4937 41.1512 50.995 40.95 50.4 40.95C49.805 40.95 49.3062 41.1512 48.9038 41.5537C48.5013 41.9562 48.3 42.455 48.3 43.05C48.3 43.645 48.5013 44.1437 48.9038 44.5462C49.3062 44.9487 49.805 45.15 50.4 45.15V45.15M50.4 57.75C49.035 57.75 47.8012 57.3737 46.6987 56.6212C45.5962 55.8687 44.8 54.88 44.31 53.655C44.135 53.655 43.9775 53.6637 43.8375 53.6812C43.6975 53.6987 43.54 53.7075 43.365 53.7075C41.545 53.7075 39.9875 53.06 38.6925 51.765C37.3975 50.47 36.75 48.9125 36.75 47.0925C36.75 46.3575 36.8725 45.6487 37.1175 44.9662C37.3625 44.2837 37.73 43.645 38.22 43.05C37.765 42.455 37.415 41.8162 37.17 41.1337C36.925 40.4512 36.8025 39.7425 36.8025 39.0075C36.8025 37.1875 37.4412 35.63 38.7187 34.335C39.9962 33.04 41.545 32.3925 43.365 32.3925C43.54 32.3925 43.6975 32.4012 43.8375 32.4187C43.9775 32.4362 44.135 32.445 44.31 32.445C44.8 31.22 45.5962 30.2312 46.6987 29.4787C47.8012 28.7262 49.035 28.35 50.4 28.35C51.765 28.35 52.9987 28.7262 54.1012 29.4787C55.2037 30.2312 56 31.22 56.49 32.445C56.665 32.445 56.8225 32.4362 56.9625 32.4187C57.1025 32.4012 57.26 32.3925 57.435 32.3925C59.255 32.3925 60.8037 33.04 62.0812 34.335C63.3587 35.63 63.9975 37.1875 63.9975 39.0075C63.9975 39.7425 63.8837 40.4512 63.6562 41.1337C63.4287 41.8162 63.07 42.455 62.58 43.05C63.035 43.645 63.385 44.2837 63.63 44.9662C63.875 45.6487 63.9975 46.3575 63.9975 47.0925C63.9975 48.9125 63.3587 50.47 62.0812 51.765C60.8037 53.06 59.255 53.7075 57.435 53.7075C57.26 53.7075 57.1025 53.6987 56.9625 53.6812C56.8225 53.6637 56.665 53.655 56.49 53.655C56 54.88 55.2037 55.8687 54.1012 56.6212C52.9987 57.3737 51.765 57.75 50.4 57.75V57.75M50.4 72.45C50.4 69.86 50.8987 67.4187 51.8962 65.1262C52.8937 62.8337 54.25 60.83 55.965 59.115C57.68 57.4 59.6837 56.0437 61.9762 55.0462C64.2687 54.0487 66.71 53.55 69.3 53.55C69.3 56.14 68.8012 58.5812 67.8037 60.8737C66.8062 63.1662 65.45 65.17 63.735 66.885C62.02 68.6 60.0162 69.9562 57.7237 70.9537C55.4312 71.9512 52.99 72.45 50.4 72.45V72.45M55.545 67.305C57.54 66.57 59.29 65.45 60.795 63.945C62.3 62.44 63.42 60.69 64.155 58.695C62.16 59.43 60.41 60.55 58.905 62.055C57.4 63.56 56.28 65.31 55.545 67.305V67.305M50.4 72.45C50.4 69.86 49.9012 67.4187 48.9038 65.1262C47.9063 62.8337 46.55 60.83 44.835 59.115C43.12 57.4 41.1162 56.0437 38.8237 55.0462C36.5312 54.0487 34.09 53.55 31.5 53.55C31.5 56.14 31.9987 58.5812 32.9962 60.8737C33.9937 63.1662 35.35 65.17 37.065 66.885C38.78 68.6 40.7837 69.9562 43.0762 70.9537C45.3687 71.9512 47.81 72.45 50.4 72.45V72.45M45.255 67.305C43.26 66.57 41.51 65.45 40.005 63.945C38.5 62.44 37.38 60.69 36.645 58.695C38.64 59.43 40.39 60.55 41.895 62.055C43.4 63.56 44.52 65.31 45.255 67.305V67.305M55.545 67.305V67.305V67.305V67.305V67.305V67.305M45.255 67.305V67.305V67.305V67.305V67.305V67.305M57.435 49.5075C58.1 49.5075 58.6687 49.2712 59.1412 48.7987C59.6137 48.3262 59.85 47.7575 59.85 47.0925C59.85 46.6025 59.7187 46.1737 59.4562 45.8062C59.1937 45.4387 58.8525 45.15 58.4325 44.94L56.595 44.0475C56.525 44.4325 56.42 44.8087 56.28 45.1762C56.14 45.5437 55.9825 45.885 55.8075 46.2C55.6325 46.515 55.4225 46.8125 55.1775 47.0925C54.9325 47.3725 54.67 47.635 54.39 47.88L56.07 49.0875C56.245 49.2275 56.4462 49.3325 56.6737 49.4025C56.9012 49.4725 57.155 49.5075 57.435 49.5075V49.5075M56.595 42.0525L58.4325 41.16C58.8525 40.95 59.185 40.6525 59.43 40.2675C59.675 39.8825 59.7975 39.4625 59.7975 39.0075C59.7975 38.3425 59.57 37.7737 59.115 37.3012C58.66 36.8287 58.1 36.5925 57.435 36.5925C57.155 36.5925 56.91 36.6275 56.7 36.6975C56.49 36.7675 56.28 36.8725 56.07 37.0125L54.3375 38.22C54.6175 38.465 54.8887 38.7275 55.1512 39.0075C55.4137 39.2875 55.6325 39.585 55.8075 39.9C55.9825 40.215 56.14 40.5562 56.28 40.9237C56.42 41.2912 56.525 41.6675 56.595 42.0525V42.0525M48.2475 37.17C48.5975 37.03 48.9475 36.925 49.2975 36.855C49.6475 36.785 50.015 36.75 50.4 36.75C50.785 36.75 51.1525 36.785 51.5025 36.855C51.8525 36.925 52.2025 37.03 52.5525 37.17L52.815 34.86C52.885 34.23 52.6662 33.6875 52.1587 33.2325C51.6512 32.7775 51.065 32.55 50.4 32.55C49.735 32.55 49.1487 32.7775 48.6413 33.2325C48.1338 33.6875 47.915 34.23 47.985 34.86L48.2475 37.17V37.17M50.4 53.55C51.065 53.55 51.6512 53.3225 52.1587 52.8675C52.6662 52.4125 52.885 51.87 52.815 51.24L52.5525 48.93C52.2025 49.07 51.8525 49.175 51.5025 49.245C51.1525 49.315 50.785 49.35 50.4 49.35C50.015 49.35 49.6475 49.315 49.2975 49.245C48.9475 49.175 48.5975 49.07 48.2475 48.93L47.985 51.24C47.915 51.87 48.1338 52.4125 48.6413 52.8675C49.1487 53.3225 49.735 53.55 50.4 53.55V53.55M44.205 42.0525C44.275 41.6675 44.38 41.2912 44.52 40.9237C44.66 40.5562 44.8175 40.215 44.9925 39.9C45.1675 39.585 45.3775 39.2875 45.6225 39.0075C45.8675 38.7275 46.13 38.465 46.41 38.22L44.73 37.0125C44.555 36.8725 44.3537 36.7675 44.1262 36.6975C43.8987 36.6275 43.645 36.5925 43.365 36.5925C42.7 36.5925 42.1312 36.8287 41.6587 37.3012C41.1862 37.7737 40.95 38.3425 40.95 39.0075C40.95 39.4625 41.0812 39.8825 41.3437 40.2675C41.6062 40.6525 41.9475 40.95 42.3675 41.16L44.205 42.0525V42.0525M43.365 49.455C43.645 49.455 43.89 49.4287 44.1 49.3762C44.31 49.3237 44.52 49.21 44.73 49.035L46.4625 47.88C46.1825 47.635 45.9112 47.3725 45.6487 47.0925C45.3862 46.8125 45.1675 46.515 44.9925 46.2C44.8175 45.885 44.66 45.5437 44.52 45.1762C44.38 44.8087 44.275 44.4325 44.205 44.0475L42.3675 44.94C41.9475 45.15 41.615 45.4475 41.37 45.8325C41.125 46.2175 41.0025 46.6375 41.0025 47.0925C41.0375 47.7575 41.2737 48.3175 41.7112 48.7725C42.1487 49.2275 42.7 49.455 43.365 49.455V49.455M55.8075 46.2V46.2V46.2V46.2V46.2V46.2V46.2V46.2V46.2V46.2V46.2V46.2V46.2V46.2M55.8075 39.9V39.9V39.9V39.9V39.9V39.9V39.9V39.9V39.9V39.9V39.9V39.9V39.9V39.9M50.4 36.75V36.75V36.75V36.75V36.75V36.75V36.75V36.75V36.75V36.75V36.75V36.75M50.4 49.35V49.35V49.35V49.35V49.35V49.35V49.35V49.35V49.35V49.35V49.35V49.35M44.9925 39.9V39.9V39.9V39.9V39.9V39.9V39.9V39.9V39.9V39.9V39.9V39.9V39.9V39.9M44.9925 46.2V46.2V46.2V46.2V46.2V46.2V46.2V46.2V46.2V46.2V46.2V46.2V46.2V46.2" fill="white"/>
<g clip-path="url(#clip0_95_380)">
<path d="M4.59854 60.8091V52.2209H6.71534L9.08616 58.8737L11.457 52.2209H13.5738V60.8091H12.0013V54.8821L9.83611 60.797H8.3362L6.17102 54.8821V60.8091H4.59854Z" fill="#131B2E"/>
<path d="M9.34683 48.1735C8.47901 48.1735 7.73221 47.9929 7.10644 47.6316C6.48067 47.2704 6.00086 46.7551 5.66701 46.0858C5.33316 45.4165 5.16623 44.6205 5.16623 43.698C5.16623 42.7755 5.33316 41.9776 5.66701 41.3042C6.00086 40.6309 6.48007 40.1116 7.10464 39.7463C7.72921 39.381 8.47654 39.1983 9.34663 39.1983C10.2231 39.1983 10.9728 39.381 11.5958 39.7463C12.2188 40.1116 12.6972 40.6309 13.0311 41.3042C13.3649 41.9776 13.5319 42.7755 13.5319 43.698C13.5319 44.6205 13.3649 45.4165 13.0311 46.0858C12.6972 46.7551 12.2188 47.2704 11.5959 47.6316C10.9729 47.9929 10.2233 48.1735 9.34683 48.1735ZM9.34507 46.6276C9.82672 46.6276 10.2382 46.512 10.5795 46.2806C10.9208 46.0492 11.1825 45.7158 11.3645 45.2803C11.5466 44.8447 11.6376 44.3173 11.6376 43.698C11.6376 43.0787 11.5465 42.5492 11.3642 42.1094C11.182 41.6697 10.92 41.3322 10.5783 41.097C10.2366 40.8618 9.8249 40.7442 9.34326 40.7442C8.86812 40.7442 8.4599 40.8618 8.11858 41.097C7.77727 41.3322 7.5156 41.6697 7.33357 42.1094C7.15153 42.5492 7.06052 43.0787 7.06052 43.698C7.06052 44.3173 7.15164 44.8447 7.33388 45.2803C7.51612 45.7158 7.7781 46.0492 8.11981 46.2806C8.46151 46.512 8.86994 46.6276 9.34507 46.6276Z" fill="#131B2E"/>
<path d="M13.7155 35.8015C12.9769 35.8015 12.3422 35.6765 11.8116 35.4265C11.281 35.1765 10.8665 34.8257 10.5681 34.3741C10.2698 33.9226 10.0988 33.3919 10.0553 32.7823L11.906 32.688C11.9528 33.0282 12.0511 33.3173 12.2011 33.5552C12.3511 33.7931 12.5531 33.9729 12.8071 34.0947C13.0611 34.2165 13.372 34.2773 13.7397 34.2773C14.0461 34.2773 14.3066 34.2407 14.5211 34.1673C14.7356 34.0939 14.8993 33.983 15.0122 33.8346C15.1251 33.6863 15.1815 33.5032 15.1815 33.2855C15.1815 33.0871 15.1336 32.9117 15.0376 32.7593C14.9416 32.6069 14.757 32.4682 14.4836 32.3432C14.2102 32.2182 13.8058 32.0953 13.2704 31.9743C12.5366 31.8098 11.9463 31.6231 11.4995 31.4143C11.0528 31.2054 10.7282 30.9413 10.5258 30.622C10.3234 30.3026 10.2222 29.9002 10.2222 29.4148C10.2222 28.9019 10.3504 28.4511 10.6068 28.0625C10.8633 27.6738 11.2318 27.3706 11.7124 27.1528C12.193 26.9351 12.7688 26.8262 13.4397 26.8262C14.151 26.8262 14.7518 26.9512 15.2421 27.2012C15.7323 27.4512 16.1166 27.7939 16.3948 28.2294C16.673 28.6648 16.842 29.1664 16.9016 29.7341L15.0654 29.8212C15.0364 29.5229 14.9533 29.264 14.8162 29.0447C14.6792 28.8253 14.4941 28.6548 14.261 28.533C14.028 28.4112 13.7462 28.3504 13.4155 28.3504C12.9995 28.3504 12.6729 28.4423 12.4358 28.6261C12.1987 28.81 12.0802 29.0519 12.0802 29.3519C12.0802 29.5648 12.133 29.7422 12.2386 29.8841C12.3443 30.026 12.5257 30.1478 12.7829 30.2494C13.0402 30.351 13.401 30.4518 13.8655 30.5518C14.6606 30.7098 15.2904 30.9131 15.7549 31.1614C16.2194 31.4098 16.5496 31.7025 16.7456 32.0396C16.9415 32.3767 17.0395 32.7629 17.0395 33.1984C17.0395 33.7322 16.9045 34.1947 16.6343 34.5858C16.3642 34.9769 15.9803 35.2773 15.4828 35.487C14.9852 35.6966 14.3961 35.8015 13.7155 35.8015Z" fill="#131B2E"/>
<path d="M19.9893 26.9614V19.9192H17.4177V18.3733H24.4069V19.9192H21.8352V26.9614H19.9893Z" fill="#131B2E"/>
<path d="M27.6324 18.2527V9.66455H31.0725C32.1047 9.66455 32.9123 9.91373 33.4954 10.4121C34.0784 10.9104 34.3699 11.5959 34.3699 12.4684C34.3699 13.0458 34.2381 13.5462 33.9744 13.9695C33.7107 14.3929 33.3325 14.7179 32.8398 14.9445C32.347 15.1711 31.758 15.2844 31.0725 15.2844H29.471V18.2527H27.6324ZM29.471 13.7385H30.9636C31.4443 13.7385 31.8176 13.6316 32.0837 13.4179C32.3498 13.2042 32.4829 12.8877 32.4829 12.4684C32.4829 12.0555 32.351 11.7427 32.0873 11.5298C31.8237 11.3169 31.4491 11.2105 30.9636 11.2105H29.471V13.7385Z" fill="#131B2E"/>
<path d="M42.1662 12.8386C41.2983 12.8386 40.5515 12.6579 39.9258 12.2967C39.3 11.9354 38.8202 11.4201 38.4863 10.7508C38.1525 10.0815 37.9856 9.28558 37.9856 8.36306C37.9856 7.44054 38.1525 6.64261 38.4863 5.96926C38.8202 5.29592 39.2994 4.7766 39.924 4.4113C40.5485 4.046 41.2959 3.86335 42.166 3.86335C43.0424 3.86335 43.7922 4.046 44.4152 4.4113C45.0381 4.7766 45.5166 5.29592 45.8504 5.96926C46.1843 6.64261 46.3512 7.44054 46.3512 8.36306C46.3512 9.28558 46.1843 10.0815 45.8504 10.7508C45.5166 11.4201 45.0382 11.9354 44.4152 12.2967C43.7923 12.6579 43.0426 12.8386 42.1662 12.8386ZM42.1644 11.2927C42.6461 11.2927 43.0575 11.177 43.3988 10.9456C43.7402 10.7143 44.0018 10.3808 44.1839 9.9453C44.3659 9.50978 44.4569 8.98237 44.4569 8.36306C44.4569 7.74375 44.3658 7.21423 44.1835 6.77449C44.0013 6.33475 43.7393 5.99727 43.3976 5.76206C43.0559 5.52685 42.6442 5.40925 42.1626 5.40925C41.6875 5.40925 41.2792 5.52685 40.9379 5.76206C40.5966 5.99727 40.3349 6.33475 40.1529 6.77449C39.9709 7.21423 39.8799 7.74375 39.8799 8.36306C39.8799 8.98237 39.971 9.50978 40.1532 9.9453C40.3355 10.3808 40.5974 10.7143 40.9391 10.9456C41.2809 11.177 41.6893 11.2927 42.1644 11.2927Z" fill="#131B2E"/>
<path d="M50.9185 12.5482V3.96008H54.3587C55.3908 3.96008 56.1985 4.20926 56.7815 4.70762C57.3645 5.20598 57.656 5.89142 57.656 6.76395C57.656 7.34133 57.5242 7.8417 57.2605 8.26507C56.9968 8.68843 56.6186 9.01341 56.1259 9.24001C55.6332 9.46661 55.0441 9.57991 54.3587 9.57991H52.7572V12.5482H50.9185ZM52.7572 8.03401H54.2498C54.7304 8.03401 55.1037 7.92716 55.3699 7.71347C55.636 7.49977 55.769 7.18327 55.769 6.76395C55.769 6.35108 55.6372 6.0382 55.3735 5.82531C55.1098 5.61243 54.7352 5.50598 54.2498 5.50598H52.7572V8.03401Z" fill="#131B2E"/>
<path d="M65.3155 14.9993C64.5956 14.9993 63.9701 14.8655 63.4389 14.5978C62.9078 14.33 62.4979 13.9491 62.2092 13.4549C61.9205 12.9607 61.7762 12.3772 61.7762 11.7044V6.21765H63.6148V11.7044C63.6148 12.2615 63.7616 12.6923 64.0551 12.9967C64.3486 13.3012 64.7687 13.4534 65.3155 13.4534C65.8638 13.4534 66.2847 13.3012 66.5783 12.9967C66.8718 12.6923 67.0185 12.2615 67.0185 11.7044V6.21765H68.8572V11.7044C68.8572 12.3772 68.7128 12.9607 68.4241 13.4549C68.1355 13.9491 67.7262 14.33 67.1964 14.5978C66.6665 14.8655 66.0396 14.9993 65.3155 14.9993Z" fill="#131B2E"/>
<path d="M72.4376 20.5634V11.9752H74.2762V20.0723L73.2553 19.0175H78.2364V20.5634H72.4376Z" fill="#131B2E"/>
<path d="M79.8255 27.977L82.9221 19.3888H85.1019L88.1984 27.977H86.2921L85.6583 26.1505H82.3585L81.7247 27.977H79.8255ZM82.8762 24.6409H85.1478L84.0156 21.3194L82.8762 24.6409Z" fill="#131B2E"/>
<path d="M83.8634 39.9038V31.3157H87.6252C88.2542 31.3157 88.7998 31.4205 89.2618 31.6302C89.7239 31.8398 90.0811 32.1366 90.3335 32.5204C90.5859 32.9043 90.7121 33.3575 90.7121 33.88C90.7121 34.2768 90.6299 34.6288 90.4654 34.936C90.3009 35.2432 90.0751 35.4928 89.788 35.6847C89.5009 35.8767 89.1727 35.9976 88.8034 36.0476L88.7599 35.9315C89.3324 35.9315 89.7687 36.0561 90.0686 36.3053C90.3686 36.5545 90.538 36.9331 90.5767 37.4411L90.7896 39.9038H88.9171L88.7574 37.7314C88.7348 37.4008 88.6332 37.1568 88.4526 36.9996C88.2719 36.8424 87.9655 36.7637 87.5333 36.7637H85.702V39.9038H83.8634ZM85.702 35.2178H87.4172C87.8639 35.2178 88.2103 35.115 88.4562 34.9094C88.7021 34.7038 88.8251 34.4131 88.8251 34.0373C88.8251 33.6534 88.7005 33.3615 88.4514 33.1615C88.2022 32.9616 87.8397 32.8616 87.3639 32.8616H85.702V35.2178Z" fill="#131B2E"/>
<path d="M85.7858 48.0665C85.4431 48.0665 85.1407 47.9931 84.8786 47.8463C84.6165 47.6995 84.4117 47.4977 84.2641 47.2409C84.1166 46.9841 84.0428 46.6931 84.0428 46.3682C84.0428 46.0356 84.1166 45.7419 84.2641 45.4873C84.4117 45.2326 84.6165 45.0319 84.8786 44.8852C85.1407 44.7384 85.4431 44.665 85.7858 44.665C86.1286 44.665 86.431 44.7384 86.6931 44.8852C86.9551 45.0319 87.16 45.2327 87.3075 45.4874C87.4551 45.7421 87.5289 46.0358 87.5289 46.3685C87.5289 46.6909 87.4551 46.981 87.3075 47.2391C87.16 47.4971 86.9551 47.6995 86.6931 47.8463C86.431 47.9931 86.1286 48.0665 85.7858 48.0665Z" fill="#131B2E"/>
<path d="M10.7858 68.0665C10.4431 68.0665 10.1407 67.9931 9.87863 67.8463C9.61655 67.6995 9.41172 67.4977 9.26414 67.2409C9.11657 66.9841 9.04278 66.6931 9.04278 66.3682C9.04278 66.0356 9.11657 65.7419 9.26414 65.4873C9.41172 65.2326 9.61655 65.0319 9.87863 64.8852C10.1407 64.7384 10.4431 64.665 10.7858 64.665C11.1286 64.665 11.431 64.7384 11.6931 64.8852C11.9551 65.0319 12.16 65.2327 12.3075 65.4874C12.4551 65.7421 12.5289 66.0358 12.5289 66.3685C12.5289 66.6909 12.4551 66.981 12.3075 67.2391C12.16 67.4971 11.9551 67.6995 11.6931 67.8463C11.431 67.9931 11.1286 68.0665 10.7858 68.0665Z" fill="#131B2E"/>
<path d="M84.4771 59.4633V50.8751H87.8205C88.8849 50.8751 89.699 51.0618 90.2627 51.4352C90.8263 51.8085 91.1082 52.3992 91.1082 53.2072C91.1082 53.5637 91.036 53.8733 90.8917 54.1362C90.7473 54.3991 90.5356 54.6067 90.2566 54.7591C89.9776 54.9116 89.6397 55.0023 89.243 55.0313L89.2382 55.0168C89.9623 55.0603 90.5155 55.2656 90.8977 55.6325C91.28 55.9994 91.4711 56.4877 91.4711 57.0973C91.4711 57.894 91.1904 58.4875 90.6292 58.8778C90.0679 59.2681 89.2688 59.4633 88.2317 59.4633H84.4771ZM86.3158 57.9682H88.1374C88.5809 57.9682 88.9377 57.8775 89.2079 57.696C89.478 57.5146 89.6131 57.2416 89.6131 56.8771C89.6131 56.5127 89.4792 56.2361 89.2115 56.0474C88.9438 55.8587 88.5857 55.7643 88.1374 55.7643H86.3158V57.9682ZM86.3158 54.4289H87.7624C88.2172 54.4289 88.5789 54.3414 88.8474 54.1664C89.1159 53.9915 89.2502 53.7362 89.2502 53.4008C89.2502 53.046 89.1196 52.7855 88.8583 52.6194C88.597 52.4533 88.2317 52.3702 87.7624 52.3702H86.3158V54.4289Z" fill="#131B2E"/>
<path d="M83.7095 71.7294V63.1412H85.5482V71.2383L84.5273 70.1835H89.5084V71.7294H83.7095Z" fill="#131B2E"/>
<path d="M79.8009 83.8314C78.9331 83.8314 78.1863 83.6507 77.5605 83.2895C76.9348 82.9282 76.455 82.4129 76.1211 81.7436C75.7873 81.0743 75.6203 80.2784 75.6203 79.3559C75.6203 78.4333 75.7873 77.6354 76.1211 76.9621C76.455 76.2887 76.9342 75.7694 77.5587 75.4041C78.1833 75.0388 78.9306 74.8561 79.8007 74.8561C80.6772 74.8561 81.4269 75.0388 82.0499 75.4041C82.6729 75.7694 83.1513 76.2887 83.4852 76.9621C83.819 77.6354 83.986 78.4333 83.986 79.3559C83.986 80.2784 83.819 81.0743 83.4852 81.7436C83.1513 82.4129 82.6729 82.9282 82.05 83.2895C81.427 83.6507 80.6774 83.8314 79.8009 83.8314ZM79.7992 82.2855C80.2808 82.2855 80.6923 82.1698 81.0336 81.9384C81.3749 81.7071 81.6366 81.3736 81.8186 80.9381C82.0007 80.5026 82.0917 79.9752 82.0917 79.3559C82.0917 78.7365 82.0006 78.207 81.8183 77.7673C81.6361 77.3275 81.3741 76.9901 81.0324 76.7549C80.6907 76.5197 80.279 76.402 79.7974 76.402C79.3222 76.402 78.914 76.5197 78.5727 76.7549C78.2314 76.9901 77.9697 77.3275 77.7877 77.7673C77.6056 78.207 77.5146 78.7365 77.5146 79.3559C77.5146 79.9752 77.6057 80.5026 77.788 80.9381C77.9702 81.3736 78.2322 81.7071 78.5739 81.9384C78.9156 82.1698 79.324 82.2855 79.7992 82.2855Z" fill="#131B2E"/>
<path d="M68.5568 88.4997C67.689 88.4997 66.9422 88.3191 66.3164 87.9578C65.6906 87.5965 65.2108 87.0813 64.877 86.4119C64.5431 85.7426 64.3762 84.9467 64.3762 84.0242C64.3762 83.1017 64.5431 82.3037 64.877 81.6304C65.2108 80.9571 65.69 80.4377 66.3146 80.0724C66.9392 79.7071 67.6865 79.5245 68.5566 79.5245C69.4331 79.5245 70.1828 79.7071 70.8058 80.0724C71.4288 80.4377 71.9072 80.9571 72.241 81.6304C72.5749 82.3037 72.7418 83.1017 72.7418 84.0242C72.7418 84.9467 72.5749 85.7426 72.241 86.4119C71.9072 87.0813 71.4288 87.5965 70.8058 87.9578C70.1829 88.3191 69.4332 88.4997 68.5568 88.4997ZM68.555 86.9538C69.0367 86.9538 69.4482 86.8381 69.7895 86.6068C70.1308 86.3754 70.3925 86.0419 70.5745 85.6064C70.7565 85.1709 70.8475 84.6435 70.8475 84.0242C70.8475 83.4049 70.7564 82.8754 70.5742 82.4356C70.3919 81.9959 70.13 81.6584 69.7882 81.4232C69.4465 81.188 69.0349 81.0704 68.5532 81.0704C68.0781 81.0704 67.6699 81.188 67.3285 81.4232C66.9872 81.6584 66.7256 81.9959 66.5435 82.4356C66.3615 82.8754 66.2705 83.4049 66.2705 84.0242C66.2705 84.6435 66.3616 85.1709 66.5438 85.6064C66.7261 86.0419 66.9881 86.3754 67.3298 86.6068C67.6715 86.8381 68.0799 86.9538 68.555 86.9538Z" fill="#131B2E"/>
<path d="M48.6036 92.7978V84.2096H51.0567L53.2436 90.4632L55.4257 84.2096H57.8789V92.7978H56.0402V87.2337L54.0202 92.776H52.455L50.4422 87.2337V92.7978H48.6036Z" fill="#131B2E"/>
<path d="M38.9249 93.1156V84.5275H40.7635V93.1156H38.9249Z" fill="#131B2E"/>
<path d="M24.4242 89.4271V80.839H26.2628L29.9642 87.2983V80.839H31.5367V89.4271H29.6497L25.9967 83.1493V89.4271H24.4242Z" fill="#131B2E"/>
<path d="M16.9941 79.7413C16.1683 79.7413 15.4595 79.5514 14.8676 79.1716C14.2757 78.7918 13.8213 78.2664 13.5044 77.5955C13.1875 76.9245 13.029 76.148 13.029 75.2658C13.029 74.4029 13.1907 73.6328 13.5141 72.9554C13.8374 72.2781 14.3031 71.7438 14.9112 71.3527C15.5192 70.9616 16.2506 70.7661 17.1054 70.7661C17.8489 70.7661 18.4759 70.8898 18.9863 71.1374C19.4968 71.385 19.9056 71.7345 20.2129 72.1861C20.5201 72.6377 20.7358 73.1683 20.86 73.778L18.9512 73.8651C18.8657 73.3861 18.6803 73.0075 18.3948 72.7293C18.1093 72.4511 17.6844 72.312 17.1199 72.312C16.6264 72.312 16.2172 72.4418 15.8922 72.7014C15.5672 72.9611 15.3245 73.3127 15.164 73.7562C15.0035 74.1997 14.9233 74.7029 14.9233 75.2658C14.9233 75.8367 15.0019 76.3423 15.1592 76.7826C15.3164 77.2229 15.5595 77.5684 15.8886 77.8192C16.2176 78.07 16.6377 78.1954 17.1489 78.1954C17.5312 78.1954 17.8606 78.1192 18.1372 77.9668C18.4138 77.8144 18.6323 77.6039 18.7928 77.3354C18.9532 77.0669 19.0472 76.7625 19.0746 76.4222H17.1223V75.0819H20.8842V79.5478H19.7472L19.6455 77.7092L19.8633 77.8059C19.781 78.1882 19.604 78.5244 19.3323 78.8147C19.0605 79.105 18.7234 79.332 18.321 79.4957C17.9186 79.6594 17.4763 79.7413 16.9941 79.7413Z" fill="#131B2E"/>
</g>
<defs>
<clipPath id="clip0_95_380">
<rect width="96" height="96" fill="white" transform="scale(1.05)"/>
</clipPath>
</defs>
</svg>
