<svg width="26" height="26" viewBox="0 0 26 26" fill="none" xmlns="http://www.w3.org/2000/svg">
<path d="M3.16729 21.1046C2.10271 19.9223 1.2907 18.5779 0.731269 17.0716C0.171838 15.5653 -0.0666627 14.0257 0.0157665 12.4528C0.0981957 10.88 0.479233 9.34157 1.15888 7.83757C1.83852 6.33358 2.88775 4.94284 4.30655 3.66534C5.22615 2.83733 6.34517 2.14495 7.66361 1.58819C8.98206 1.03143 10.5308 0.618165 12.3099 0.348403C14.0889 0.0786423 16.1101 -0.0344818 18.3734 0.00903111C20.6368 0.0525441 23.16 0.2724 25.943 0.668598C26.0041 3.32543 25.9389 5.76287 25.7476 7.98089C25.5562 10.1989 25.2453 12.1916 24.8147 13.959C24.3841 15.7264 23.828 17.2619 23.1463 18.5655C22.4647 19.8691 21.6509 20.9468 20.705 21.7984C19.3125 23.0523 17.8575 23.9461 16.3399 24.4799C14.8224 25.0137 13.2897 25.2401 11.7419 25.1589C10.1191 25.0739 8.55044 24.6725 7.03593 23.9547C5.52141 23.237 4.23187 22.287 3.16729 21.1046ZM7.39293 20.7253C8.0947 21.1876 8.8214 21.5324 9.57304 21.7595C10.3247 21.9867 11.1 22.1212 11.8989 22.1631C13.0473 22.2232 14.1953 22.0518 15.343 21.6488C16.4907 21.2459 17.6031 20.5594 18.6804 19.5894C19.1533 19.1636 19.6419 18.5571 20.1463 17.7699C20.6507 16.9827 21.1058 15.9426 21.5115 14.6496C21.9172 13.3565 22.2562 11.7846 22.5285 9.93384C22.8007 8.08305 22.9418 5.86865 22.9517 3.29064C21.731 3.1766 20.3526 3.08558 18.8166 3.0176C17.2805 2.94961 15.7452 2.98806 14.2105 3.13294C12.6758 3.27782 11.2088 3.56394 9.80954 3.99129C8.41025 4.41864 7.25081 5.04632 6.33122 5.87433C5.14888 6.93891 4.31672 8.00933 3.83473 9.08558C3.35274 10.1618 3.08493 11.2118 3.03128 12.2353C2.95409 13.7083 3.16724 15.015 3.67075 16.1554C4.17425 17.2959 4.62644 18.1019 5.02731 18.5735C6.18054 16.6312 7.66656 14.7877 9.48536 13.043C11.3042 11.2983 13.3927 9.89942 15.7511 8.8464C13.8711 10.325 12.2113 12.0217 10.7716 13.9365C9.33193 15.8513 8.2057 18.1142 7.39293 20.7253Z" fill="#665F3D"/>
</svg>
