<svg width="34" height="33" viewBox="0 0 34 33" fill="none" xmlns="http://www.w3.org/2000/svg">
<path d="M26.9172 11.9982L24.9705 7.9065L20.8134 6.10378L24.9051 4.15707L26.7078 -2.33985e-05L28.6545 4.09163L32.8116 5.89435L28.72 7.84106L26.9172 11.9982V11.9982M27.2837 32.995L25.337 28.9033L21.1799 27.1006L25.2716 25.1539L27.0743 20.9968L29.021 25.0884L33.1781 26.8912L29.0865 28.8379L27.2837 32.995V32.995M12.2075 28.7574L8.31407 20.5741L-0.000121335 16.9687L8.18318 13.0753L11.7886 4.76108L15.682 12.9444L23.9962 16.5498L15.8129 20.4432L12.2075 28.7574V28.7574M12.0805 21.4835L13.524 18.2328L16.7223 16.6768L13.4716 15.2333L11.9156 12.035L10.4721 15.2857L7.27377 16.8417L10.5245 18.2852L12.0805 21.4835V21.4835M11.9981 16.7593V16.7593V16.7593V16.7593V16.7593V16.7593V16.7593V16.7593V16.7593V16.7593" fill="#24703E"/>
</svg>
